<?xml version="1.0" encoding="iso-8859-1"?>
<!-- Generator: Adobe Illustrator 21.1.0, SVG Export Plug-In . SVG Version: 6.00 Build 0)  -->
<svg version="1.1" id="Layer_1" xmlns="http://www.w3.org/2000/svg" xmlns:xlink="http://www.w3.org/1999/xlink" x="0px" y="0px"
	 viewBox="0 0 359.439 54" style="enable-background:new 0 0 359.439 54;" xml:space="preserve">
<g>
	<rect x="52" y="8.007" style="fill:#070606;" width="20" height="8"/>
</g>
<g>
	<rect x="13" y="8.007" style="fill:#070606;" width="8" height="26"/>
</g>
<g>
	<rect x="26" y="8.007" style="fill:#070606;" width="8" height="38"/>
</g>
<g>
	<rect y="8.007" style="fill:#070606;" width="8" height="38"/>
</g>
<g>
	<rect x="52" y="21.007" style="fill:#070606;" width="8" height="25"/>
</g>
<g>
	<rect x="39" y="8.007" style="fill:#070606;" width="8" height="8"/>
</g>
<g>
	<rect x="39" y="21.007" style="fill:#9D0516;" width="8" height="25"/>
</g>
<rect x="88" style="fill:#231F1C;" width="1" height="54"/>
<g>
	<path style="fill:#070606;" d="M108.237,24.007h-3.679V6.761h5.841c4.599,0,6.186,2.69,6.186,5.634
		c0,2.989-1.586,5.634-6.186,5.634h-2.162V24.007z M108.237,14.717h2.185c1.84,0,2.185-1.403,2.185-2.299
		c0-0.897-0.345-2.3-2.185-2.3h-2.185V14.717z"/>
	<path style="fill:#070606;" d="M123.117,15.959c0-0.529-0.368-0.805-1.356-0.805c-1.449,0-3.127,0.437-4.139,0.874v-3.081
		c0.782-0.345,2.506-0.759,4.139-0.759c4.139,0,4.92,1.771,4.92,4.346v7.473h-2.207l-0.506-0.874c-0.828,0.736-2,1.196-3.38,1.196
		c-2.92,0-3.909-1.932-3.909-3.656c0-3.104,2.276-3.564,4.346-3.771l2.092-0.207V15.959z M121.577,18.902
		c-1.035,0.138-1.449,0.644-1.449,1.541c0,0.851,0.552,1.357,1.334,1.357c0.667,0,1.288-0.184,1.655-0.552v-2.553L121.577,18.902z"
		/>
	<path style="fill:#070606;" d="M135.882,15.315c-0.185-0.046-0.645-0.092-1.127-0.092c-1.127,0-2.139,0.391-2.438,0.667v8.117
		h-3.68V12.51h2.207l0.461,0.828c0.574-0.552,1.816-1.149,3.541-1.149c0.459,0,0.873,0.092,1.035,0.161V15.315z"/>
	<path style="fill:#070606;" d="M142.621,15.959c0-0.529-0.367-0.805-1.356-0.805c-1.448,0-3.128,0.437-4.14,0.874v-3.081
		c0.782-0.345,2.507-0.759,4.14-0.759c4.14,0,4.921,1.771,4.921,4.346v7.473h-2.207l-0.506-0.874
		c-0.828,0.736-2.001,1.196-3.381,1.196c-2.92,0-3.909-1.932-3.909-3.656c0-3.104,2.276-3.564,4.347-3.771l2.092-0.207V15.959z
		 M141.08,18.902c-1.034,0.138-1.448,0.644-1.448,1.541c0,0.851,0.552,1.357,1.334,1.357c0.667,0,1.288-0.184,1.655-0.552v-2.553
		L141.08,18.902z"/>
	<path style="fill:#070606;" d="M152.856,24.099c0,0-0.483,0.092-1.058,0.092c-1.978,0-3.541-1.012-3.541-3.242V6.761h3.656v13.682
		c0,0.437,0.207,0.69,0.942,0.69V24.099z"/>
	<path style="fill:#070606;" d="M159.181,24.099c0,0-0.483,0.092-1.059,0.092c-1.977,0-3.541-1.012-3.541-3.242V6.761h3.656v13.682
		c0,0.437,0.207,0.69,0.943,0.69V24.099z"/>
	<path style="fill:#070606;" d="M163.964,19.478c-0.092,1.495,0.69,1.931,2.484,1.931c1.725,0,3.012-0.345,3.84-0.759v2.875
		c-1.334,0.552-2.943,0.805-4.323,0.805c-3.794,0-5.634-1.932-5.634-6.07c0-4.139,1.816-6.071,5.381-6.071
		c4.921,0,5.266,3.679,4.967,7.29H163.964z M163.964,17.224h3.266c0.207-1.265-0.068-2.276-1.472-2.276
		C164.517,14.947,163.964,15.775,163.964,17.224z"/>
	<path style="fill:#070606;" d="M177.212,24.099c0,0-0.482,0.092-1.058,0.092c-1.978,0-3.541-1.012-3.541-3.242V6.761h3.656v13.682
		c0,0.437,0.206,0.69,0.942,0.69V24.099z"/>
	<path style="fill:#070606;" d="M185.837,14.257c-0.414-1.012-0.644-2.046-0.644-3.104c0-2.07,1.196-4.714,4.737-4.714
		c3.495,0,4.484,1.886,4.484,4.346c0,2.253-1.266,3.495-3.564,4.668c0.828,1.058,1.84,2.116,3.012,3.059
		c1.012-1.495,1.518-3.61,1.518-6.002h3.726c0,3.312-0.874,6.002-2.276,7.957c0.873,0.459,1.748,0.805,2.645,1.035l-1.357,3.15
		c-1.241-0.46-2.506-1.058-3.771-1.771c-1.448,0.966-3.128,1.449-4.897,1.449c-4.048,0-6.301-1.816-6.301-4.99
		C183.148,16.764,184.068,15.338,185.837,14.257z M191.058,20.673c-1.334-1.058-2.529-2.208-3.496-3.472
		c-0.459,0.46-0.689,0.966-0.689,1.587c0,1.472,1.173,2.092,2.668,2.092C190.069,20.88,190.575,20.811,191.058,20.673z
		 M189.242,12.694c1.012-0.46,1.701-0.943,1.701-1.863c0-0.644-0.23-0.943-0.966-0.943c-0.782,0-1.058,0.391-1.058,1.219
		C188.919,11.59,189.035,12.119,189.242,12.694z"/>
	<path style="fill:#070606;" d="M205.641,24.007V6.761h5.588c5.841,0,7.358,3.725,7.358,8.623s-1.518,8.623-7.358,8.623H205.641z
		 M209.32,20.65h1.979c2.689,0,3.473-1.932,3.473-5.266c0-3.312-0.783-5.266-3.473-5.266h-1.979V20.65z"/>
	<path style="fill:#070606;" d="M222.408,6.991c1.219,0,2.184,0.966,2.184,2.185c0,1.242-0.965,2.184-2.184,2.184
		c-1.242,0-2.186-0.942-2.186-2.184C220.222,7.957,221.166,6.991,222.408,6.991z M225.166,24.099c0,0-0.483,0.092-1.058,0.092
		c-1.978,0-3.541-1.012-3.541-3.242V12.51h3.656v7.933c0,0.437,0.207,0.69,0.942,0.69V24.099z"/>
	<path style="fill:#070606;" d="M235.378,15.867c-1.059-0.437-2.369-0.736-3.703-0.736c-1.034,0-1.609,0.23-1.609,0.805
		c0,0.598,0.391,0.736,1.15,0.805c3.633,0.322,4.645,1.288,4.645,3.679c0,2.208-1.311,3.909-5.197,3.909
		c-2.115,0-3.334-0.391-4.185-0.736v-3.081c1.081,0.46,2.645,0.874,4.093,0.874c1.173,0,1.702-0.23,1.702-0.805
		c0-0.598-0.392-0.736-1.149-0.805c-3.634-0.322-4.646-1.288-4.646-3.679c0-2.346,1.518-3.909,5.06-3.909
		c2.092,0,3.08,0.276,3.84,0.598V15.867z"/>
	<path style="fill:#070606;" d="M244.854,24.099c-0.506,0.138-1.38,0.23-1.886,0.23c-3.219,0-4.438-1.356-4.438-4.07v-4.691h-1.863
		v-2.438l1.863-0.506v-2.369l3.679-0.989v3.242h2.852v3.059h-2.852v4.392c0,0.896,0.345,1.402,1.518,1.402
		c0.483,0,0.942-0.092,1.127-0.138V24.099z"/>
	<path style="fill:#070606;" d="M253.8,15.315c-0.184-0.046-0.644-0.092-1.127-0.092c-1.126,0-2.139,0.391-2.438,0.667v8.117h-3.679
		V12.51h2.208l0.459,0.828c0.575-0.552,1.816-1.149,3.542-1.149c0.46,0,0.874,0.092,1.034,0.161V15.315z"/>
	<path style="fill:#070606;" d="M257.022,6.991c1.219,0,2.185,0.966,2.185,2.185c0,1.242-0.966,2.184-2.185,2.184
		c-1.241,0-2.185-0.942-2.185-2.184C254.837,7.957,255.781,6.991,257.022,6.991z M259.781,24.099c0,0-0.482,0.092-1.057,0.092
		c-1.979,0-3.541-1.012-3.541-3.242V12.51h3.656v7.933c0,0.437,0.206,0.69,0.941,0.69V24.099z"/>
	<path style="fill:#070606;" d="M261.392,24.007V6.761h3.68v6.163c0.689-0.414,1.609-0.736,2.873-0.736
		c2.99,0,4.463,1.839,4.463,6.071c0,4.231-1.473,6.07-4.463,6.07c-1.838,0-2.92-0.552-3.725-1.242l-0.621,0.92H261.392z
		 M265.072,20.857c0,0,0.713,0.483,1.633,0.483c1.701,0,2.068-1.104,2.068-3.081c0-1.955-0.367-3.082-2.068-3.082
		c-0.92,0-1.633,0.483-1.633,0.483V20.857z"/>
	<path style="fill:#070606;" d="M282.39,24.007l-0.461-0.828c-1.287,0.782-2.736,1.149-4,1.149c-3.129,0-4.025-1.655-4.025-3.863
		V12.51h3.68v7.404c0,0.851,0.299,1.426,1.287,1.426c0.896,0,1.701-0.368,2.047-0.598V12.51h3.68v11.498H282.39z"/>
	<path style="fill:#070606;" d="M293.935,24.099c-0.506,0.138-1.379,0.23-1.885,0.23c-3.221,0-4.439-1.356-4.439-4.07v-4.691h-1.861
		v-2.438l1.861-0.506v-2.369l3.68-0.989v3.242h2.852v3.059h-2.852v4.392c0,0.896,0.346,1.402,1.518,1.402
		c0.482,0,0.943-0.092,1.127-0.138V24.099z"/>
	<path style="fill:#070606;" d="M298.812,19.478c-0.092,1.495,0.689,1.931,2.482,1.931c1.725,0,3.014-0.345,3.84-0.759v2.875
		c-1.332,0.552-2.943,0.805-4.322,0.805c-3.795,0-5.633-1.932-5.633-6.07c0-4.139,1.816-6.071,5.381-6.071
		c4.92,0,5.266,3.679,4.967,7.29H298.812z M298.812,17.224h3.266c0.207-1.265-0.07-2.276-1.473-2.276
		C299.363,14.947,298.812,15.775,298.812,17.224z"/>
	<path style="fill:#070606;" d="M315.693,24.007l-0.621-0.92c-0.805,0.69-1.885,1.242-3.725,1.242c-2.99,0-4.461-1.839-4.461-6.07
		c0-4.231,1.471-6.071,4.461-6.071c1.264,0,2.184,0.322,2.873,0.736V6.761h3.68v17.246H315.693z M314.22,15.66
		c0,0-0.713-0.483-1.633-0.483c-1.701,0-2.068,1.127-2.068,3.082c0,1.978,0.367,3.081,2.068,3.081c0.92,0,1.633-0.483,1.633-0.483
		V15.66z"/>
	<path style="fill:#070606;" d="M104.443,38.385c0-5.267,1.449-8.945,6.875-8.945s6.875,3.679,6.875,8.945
		c0,5.266-1.449,8.944-6.875,8.944S104.443,43.65,104.443,38.385z M108.168,38.385c0,4.023,0.874,5.61,3.15,5.61
		s3.15-1.587,3.15-5.61c0-4.025-0.874-5.611-3.15-5.611S108.168,34.359,108.168,38.385z"/>
	<path style="fill:#070606;" d="M122.382,35.51l0.621,0.92c0.805-0.689,1.885-1.242,3.725-1.242c2.989,0,4.461,1.84,4.461,6.071
		s-1.472,6.07-4.461,6.07c-1.265,0-2.185-0.321-2.875-0.735v6.162h-3.679V35.51H122.382z M123.854,43.88
		c0,0,0.713,0.483,1.633,0.483c1.702,0,2.07-1.15,2.07-3.104c0-1.978-0.368-3.059-2.07-3.059c-0.92,0-1.633,0.483-1.633,0.483V43.88
		z"/>
	<path style="fill:#070606;" d="M135.974,42.478c-0.092,1.495,0.69,1.931,2.484,1.931c1.725,0,3.012-0.344,3.84-0.758v2.874
		c-1.334,0.552-2.943,0.805-4.323,0.805c-3.794,0-5.634-1.932-5.634-6.07c0-4.14,1.816-6.071,5.381-6.071
		c4.921,0,5.266,3.68,4.967,7.29H135.974z M135.974,40.224h3.266c0.207-1.265-0.068-2.276-1.472-2.276
		C136.527,37.947,135.974,38.775,135.974,40.224z"/>
	<path style="fill:#070606;" d="M151.751,38.315c-0.184-0.046-0.644-0.093-1.127-0.093c-1.126,0-2.139,0.392-2.438,0.668v8.117
		h-3.679V35.51h2.208l0.459,0.828c0.575-0.553,1.816-1.15,3.542-1.15c0.46,0,0.874,0.092,1.034,0.161V38.315z"/>
	<path style="fill:#070606;" d="M158.491,38.959c0-0.529-0.368-0.805-1.356-0.805c-1.449,0-3.127,0.438-4.139,0.873v-3.08
		c0.781-0.346,2.506-0.76,4.139-0.76c4.139,0,4.921,1.771,4.921,4.347v7.474h-2.208l-0.506-0.875c-0.828,0.736-2,1.196-3.38,1.196
		c-2.921,0-3.909-1.932-3.909-3.656c0-3.104,2.276-3.563,4.346-3.771l2.093-0.207V38.959z M156.951,41.902
		c-1.035,0.139-1.449,0.645-1.449,1.541c0,0.851,0.552,1.356,1.334,1.356c0.666,0,1.287-0.185,1.655-0.552v-2.553L156.951,41.902z"
		/>
	<path style="fill:#070606;" d="M171.279,47.1c-0.506,0.138-1.381,0.229-1.887,0.229c-3.219,0-4.438-1.356-4.438-4.069v-4.691
		h-1.863v-2.438l1.863-0.506v-2.369l3.68-0.988v3.242h2.852v3.059h-2.852v4.393c0,0.896,0.344,1.402,1.518,1.402
		c0.482,0,0.942-0.092,1.127-0.139V47.1z"/>
	<path style="fill:#070606;" d="M174.937,29.991c1.219,0,2.184,0.966,2.184,2.185c0,1.242-0.965,2.184-2.184,2.184
		c-1.242,0-2.186-0.941-2.186-2.184C172.751,30.957,173.695,29.991,174.937,29.991z M177.696,47.1c0,0-0.483,0.092-1.058,0.092
		c-1.978,0-3.541-1.012-3.541-3.242V35.51h3.656v7.934c0,0.437,0.207,0.689,0.942,0.689V47.1z"/>
	<path style="fill:#070606;" d="M181.514,35.51l0.46,0.828c1.287-0.782,2.736-1.15,4.001-1.15c3.128,0,4.024,1.656,4.024,3.863
		v7.957h-3.68v-7.404c0-0.852-0.299-1.426-1.287-1.426c-0.896,0-1.701,0.367-2.047,0.598v8.232h-3.68V35.51H181.514z"/>
	<path style="fill:#070606;" d="M196.67,35.188c1.058,0,1.862,0.047,2.69,0.322h3.748v2.461l-1.379,0.367
		c0.068,0.391,0.115,0.828,0.115,1.266c0,2.896-1.61,4.414-5.175,4.414c-0.413,0-0.805,0-1.173-0.045
		c-0.068,0.092-0.16,0.229-0.16,0.436c0,0.23,0.138,0.369,0.459,0.414l4.438,0.575c2.415,0.322,3.104,1.519,3.104,3.38
		c0,3.105-3.564,4.301-7.082,4.301c-2.898,0-5.45-0.896-5.45-3.127c0-1.564,1.218-2.529,2.392-2.783
		c-0.713-0.367-1.059-1.08-1.059-1.862c0-0.644,0.483-1.448,1.219-1.978c-1.264-0.736-1.862-1.955-1.862-3.725
		C191.497,36.705,193.107,35.188,196.67,35.188z M195.083,47.789c-0.482,0.184-0.873,0.667-0.873,1.173
		c0,0.827,0.621,1.356,2.438,1.356c1.747,0,3.059-0.598,3.059-1.356c0-0.368-0.185-0.598-0.645-0.667L195.083,47.789z
		 M196.67,41.305c1.127,0,1.679-0.575,1.679-1.701c0-1.127-0.552-1.702-1.679-1.702c-1.126,0-1.679,0.575-1.679,1.702
		C194.992,40.729,195.544,41.305,196.67,41.305z"/>
	<path style="fill:#070606;" d="M220.911,41.512c0,4.277-2.69,5.817-6.761,5.817c-1.862,0-4.139-0.321-5.381-1.058V42.5
		c0.805,0.461,2.736,1.334,5.014,1.334c2.598,0,3.357-0.805,3.357-1.978c0-1.311-0.576-1.747-2.323-1.978
		c-4.369-0.574-6.048-1.863-6.048-5.242c0-3.128,1.908-5.197,6.462-5.197c2.345,0,4.069,0.414,4.875,0.851v3.563
		c-0.942-0.459-2.852-0.919-4.599-0.919c-1.909,0-2.967,0.598-2.967,1.702c0,1.241,0.666,1.632,2.461,1.885
		C218.818,37.051,220.911,37.832,220.911,41.512z"/>
	<path style="fill:#070606;" d="M225.72,35.51l1.885,6.761l1.886-6.761h3.978l-6.576,17.246h-4.023l2.988-6.508l-4.115-10.738
		H225.72z"/>
	<path style="fill:#070606;" d="M243.22,38.867c-1.057-0.438-2.367-0.736-3.701-0.736c-1.035,0-1.609,0.23-1.609,0.805
		c0,0.599,0.391,0.736,1.148,0.805c3.634,0.322,4.646,1.289,4.646,3.68c0,2.207-1.311,3.909-5.196,3.909
		c-2.116,0-3.335-0.391-4.186-0.735v-3.082c1.08,0.461,2.645,0.874,4.094,0.874c1.172,0,1.701-0.229,1.701-0.805
		c0-0.598-0.391-0.735-1.15-0.805c-3.633-0.322-4.645-1.288-4.645-3.679c0-2.346,1.518-3.91,5.059-3.91
		c2.093,0,3.082,0.276,3.84,0.598V38.867z"/>
	<path style="fill:#070606;" d="M252.697,47.1c-0.506,0.138-1.38,0.229-1.886,0.229c-3.22,0-4.438-1.356-4.438-4.069v-4.691h-1.862
		v-2.438l1.862-0.506v-2.369l3.68-0.988v3.242h2.852v3.059h-2.852v4.393c0,0.896,0.345,1.402,1.518,1.402
		c0.482,0,0.943-0.092,1.127-0.139V47.1z"/>
	<path style="fill:#070606;" d="M257.574,42.478c-0.092,1.495,0.689,1.931,2.483,1.931c1.725,0,3.013-0.344,3.841-0.758v2.874
		c-1.334,0.552-2.943,0.805-4.324,0.805c-3.793,0-5.633-1.932-5.633-6.07c0-4.14,1.816-6.071,5.381-6.071
		c4.92,0,5.266,3.68,4.967,7.29H257.574z M257.574,40.224h3.266c0.207-1.265-0.069-2.276-1.473-2.276
		C258.125,37.947,257.574,38.775,257.574,40.224z"/>
	<path style="fill:#070606;" d="M278.939,47.008v-7.91c0-0.599-0.322-0.92-1.035-0.92c-0.781,0-1.449,0.367-1.701,0.598v8.232h-3.68
		v-7.91c0-0.599-0.322-0.92-1.035-0.92c-0.781,0-1.449,0.367-1.701,0.598v8.232h-3.68V35.51h2.207l0.461,0.828
		c0.828-0.713,2.414-1.15,3.609-1.15c1.541,0,2.301,0.414,2.668,0.943c0.828-0.621,2.346-0.943,3.725-0.943
		c2.99,0,3.84,1.794,3.84,3.863v7.957H278.939z"/>
	<path style="fill:#070606;" d="M293.175,38.867c-1.057-0.438-2.367-0.736-3.701-0.736c-1.035,0-1.609,0.23-1.609,0.805
		c0,0.599,0.391,0.736,1.148,0.805c3.635,0.322,4.646,1.289,4.646,3.68c0,2.207-1.312,3.909-5.197,3.909
		c-2.115,0-3.334-0.391-4.186-0.735v-3.082c1.08,0.461,2.645,0.874,4.094,0.874c1.172,0,1.701-0.229,1.701-0.805
		c0-0.598-0.391-0.735-1.15-0.805c-3.633-0.322-4.645-1.288-4.645-3.679c0-2.346,1.518-3.91,5.059-3.91
		c2.094,0,3.082,0.276,3.84,0.598V38.867z"/>
	<path style="fill:#070606;" d="M299.894,38.385c0-6.002,2.162-8.945,7.404-8.945c2.346,0,4.047,0.345,5.082,0.805v3.587
		c-1.426-0.598-2.967-0.942-4.393-0.942c-3.287,0-4.369,1.471-4.369,5.496c0,4.299,1.174,5.495,4.369,5.495
		c0.346,0,0.805-0.022,1.059-0.069v-3.494h-2.438v-3.289h6.117v9.129c-1.035,0.645-3.059,1.173-5.543,1.173
		C302.056,47.329,299.894,44.386,299.894,38.385z"/>
	<path style="fill:#070606;" d="M321.972,38.315c-0.186-0.046-0.645-0.093-1.127-0.093c-1.127,0-2.139,0.392-2.438,0.668v8.117
		h-3.68V35.51h2.207l0.461,0.828c0.574-0.553,1.816-1.15,3.541-1.15c0.459,0,0.873,0.092,1.035,0.161V38.315z"/>
	<path style="fill:#070606;" d="M322.779,41.259c0-3.587,1.148-6.071,5.402-6.071s5.404,2.484,5.404,6.071s-1.15,6.07-5.404,6.07
		S322.779,44.846,322.779,41.259z M326.457,41.259c0,2.3,0.461,3.127,1.725,3.127c1.266,0,1.725-0.827,1.725-3.127
		s-0.459-3.128-1.725-3.128C326.917,38.131,326.457,38.959,326.457,41.259z"/>
	<path style="fill:#070606;" d="M343.568,47.008l-0.459-0.828c-1.289,0.781-2.736,1.149-4.002,1.149
		c-3.127,0-4.023-1.655-4.023-3.862V35.51h3.678v7.404c0,0.852,0.299,1.426,1.289,1.426c0.896,0,1.701-0.367,2.047-0.598V35.51
		h3.678v11.498H343.568z"/>
	<path style="fill:#070606;" d="M350.056,35.51l0.621,0.92c0.805-0.689,1.885-1.242,3.725-1.242c2.99,0,4.461,1.84,4.461,6.071
		s-1.471,6.07-4.461,6.07c-1.266,0-2.184-0.321-2.875-0.735v6.162h-3.678V35.51H350.056z M351.527,43.88
		c0,0,0.713,0.483,1.633,0.483c1.701,0,2.07-1.15,2.07-3.104c0-1.978-0.369-3.059-2.07-3.059c-0.92,0-1.633,0.483-1.633,0.483V43.88
		z"/>
</g>
</svg>
